<?xml version="1.0" standalone="no"?>
<!DOCTYPE svg PUBLIC "-//W3C//DTD SVG 20010904//EN"
 "http://www.w3.org/TR/2001/REC-SVG-20010904/DTD/svg10.dtd">
<svg version="1.0" xmlns="http://www.w3.org/2000/svg"
 width="1024.000000pt" height="768.000000pt" viewBox="0 0 1024.000000 768.000000"
 preserveAspectRatio="xMidYMid meet">

<g transform="translate(0.000000,768.000000) scale(0.100000,-0.100000)"
fill="#000000" stroke="none">
<path d="M4918 6690 c-223 -36 -362 -119 -430 -258 -30 -60 -33 -75 -33 -157
0 -82 3 -97 32 -155 18 -36 57 -96 88 -134 30 -38 53 -71 51 -73 -9 -9 -76 28
-156 87 -127 92 -267 153 -449 196 -181 42 -408 48 -535 15 -265 -70 -412
-232 -360 -397 33 -107 118 -170 271 -204 48 -11 111 -26 138 -34 28 -9 86
-23 130 -31 115 -23 113 -21 63 -60 -59 -45 -83 -100 -68 -157 6 -22 9 -42 7
-45 -3 -2 -65 -15 -139 -29 -412 -76 -1043 -248 -1413 -384 -71 -27 -167 -58
-212 -70 -94 -25 -123 -47 -123 -94 0 -44 34 -74 101 -88 45 -9 72 -8 149 6
52 9 105 20 118 23 40 10 23 -14 -48 -66 -39 -28 -79 -65 -90 -83 -24 -40 -27
-110 -5 -128 25 -21 90 -6 143 34 45 32 332 144 332 128 0 -3 -29 -36 -65 -73
-70 -73 -95 -118 -95 -174 0 -52 31 -79 85 -73 63 8 122 41 273 155 76 57 138
99 140 94 1 -4 -7 -32 -18 -61 -30 -76 -37 -168 -16 -208 35 -68 127 -33 276
105 47 43 113 99 146 125 59 45 225 151 229 146 1 -2 -8 -55 -21 -118 -38
-184 -29 -271 27 -278 37 -4 51 17 37 56 -20 53 -8 57 134 44 261 -26 515 -12
837 43 236 41 247 33 67 -54 -68 -33 -142 -76 -164 -95 -22 -20 -61 -46 -88
-57 -32 -14 -75 -48 -124 -100 -71 -74 -84 -83 -255 -168 -185 -92 -468 -208
-795 -326 -242 -87 -814 -275 -960 -316 -174 -47 -587 -204 -621 -235 -10 -9
-19 -30 -19 -45 0 -24 -6 -30 -38 -39 -254 -73 -427 -112 -577 -129 -248 -30
-297 -43 -343 -94 -13 -14 -26 -43 -29 -65 -5 -35 -1 -44 22 -68 l28 -27 -19
-171 c-28 -251 -26 -573 4 -722 61 -307 173 -480 354 -548 25 -10 59 -31 74
-47 31 -33 69 -37 113 -14 42 21 106 98 119 143 20 66 14 201 -18 385 -16 95
-34 226 -41 291 -14 142 -8 162 48 171 68 11 85 22 81 53 -3 24 -9 28 -57 37
-69 14 -52 30 38 38 67 6 96 23 85 50 -6 18 -62 37 -106 37 -33 0 -35 13 -9
39 12 12 41 21 82 26 35 4 100 18 144 31 43 12 80 22 82 21 1 -2 9 -72 18
-157 30 -293 46 -352 97 -358 43 -5 225 43 375 99 76 28 251 88 388 133 138
46 311 111 384 145 74 34 223 94 330 132 108 39 304 117 436 174 341 146 1024
503 1025 536 0 3 -26 23 -57 45 -72 49 -214 163 -271 218 -38 36 -72 83 -72
101 0 15 52 -25 125 -95 123 -118 230 -186 415 -265 47 -20 109 -55 139 -77
60 -46 132 -80 276 -131 55 -20 148 -56 207 -81 59 -25 132 -50 162 -58 31 -7
56 -15 56 -18 0 -8 -190 -129 -370 -235 -154 -91 -242 -149 -607 -398 -78 -54
-171 -110 -208 -127 -54 -24 -68 -36 -80 -64 -20 -48 -19 -85 4 -122 18 -30
19 -33 2 -60 -10 -16 -26 -35 -35 -43 -10 -8 -31 -41 -47 -72 -23 -47 -50 -75
-144 -154 -138 -115 -179 -166 -172 -212 3 -18 19 -52 35 -75 15 -24 46 -74
67 -113 194 -357 311 -476 485 -491 114 -10 708 13 773 30 121 33 222 100 277
186 41 64 51 108 34 148 -14 35 -26 39 -197 66 -121 19 -364 87 -402 112 -32
21 -31 29 5 70 30 34 31 64 3 64 -8 0 -36 -10 -63 -21 -28 -12 -57 -18 -67
-15 -14 6 -6 17 45 62 34 31 62 62 62 70 0 20 -40 17 -80 -6 -73 -42 -99 -51
-120 -40 -24 13 -27 66 -5 97 8 12 39 38 67 59 29 21 76 59 104 85 27 25 60
49 71 53 14 5 61 -9 140 -40 230 -91 457 -130 709 -122 117 4 146 8 175 24 24
14 34 27 34 45 0 17 -5 23 -17 21 -15 -2 -18 5 -18 39 0 61 31 117 117 211
149 165 284 347 380 513 75 129 162 312 195 406 29 85 32 106 32 214 1 92 -3
132 -17 173 -42 120 -138 222 -272 289 -119 60 -406 174 -490 195 -127 31
-130 37 -38 77 213 93 305 158 519 364 l132 127 61 -84 c77 -106 148 -171 320
-289 270 -187 467 -299 669 -382 280 -114 501 -168 855 -210 112 -13 133 -13
163 0 19 8 34 18 34 24 0 14 -29 41 -46 41 -8 0 -14 2 -14 4 0 12 232 236 245
236 8 0 32 -7 52 -15 96 -37 474 -124 598 -136 173 -18 220 -17 253 8 38 28
42 87 8 128 l-24 30 44 41 c34 31 44 48 44 71 0 39 23 63 59 63 38 0 126 46
146 76 23 36 16 76 -16 91 -15 7 -136 31 -270 54 -207 35 -278 42 -469 49
-171 7 -259 15 -365 35 -446 83 -652 141 -1075 305 -231 89 -328 135 -410 196
-147 108 -400 316 -429 352 l-31 39 38 7 c20 3 57 6 82 6 78 1 194 27 255 56
74 36 150 110 199 194 22 36 57 84 80 108 51 54 44 68 -47 98 -84 27 -102 43
-117 105 -23 93 9 149 83 149 34 0 152 37 208 65 64 33 109 86 109 131 0 19
-5 44 -11 56 -40 75 -268 79 -498 8 -77 -24 -128 -25 -181 -4 -37 15 -82 14
-126 -3 -9 -3 -14 2 -14 15 0 32 -25 45 -70 38 -27 -4 -50 -1 -68 8 -44 23
-143 134 -219 246 -119 174 -238 282 -438 395 -251 143 -402 195 -639 221
-161 17 -610 26 -688 14z m2222 -1004 c20 -25 -9 -67 -94 -130 -126 -95 -223
-196 -252 -263 -59 -138 -71 -150 -113 -116 l-21 18 30 63 c43 90 81 142 198
269 141 152 217 200 252 159z m264 -242 c12 -12 16 -37 16 -102 1 -118 22
-166 79 -182 23 -6 41 -14 41 -18 0 -18 -79 -125 -105 -142 -54 -36 -87 -23
-190 74 -62 59 -73 64 -93 44 -32 -32 12 -144 72 -184 14 -9 26 -20 26 -24 0
-13 -199 -33 -259 -26 -115 14 -179 68 -202 173 -18 81 -5 103 63 103 65 0
122 26 126 57 4 26 -28 43 -80 43 -26 0 -29 2 -18 16 8 8 30 22 49 30 20 8 54
32 76 53 71 68 98 81 162 82 32 0 78 4 103 8 75 14 117 12 134 -5z m-1983
-104 c17 -10 19 -23 19 -153 0 -328 47 -483 151 -504 16 -3 29 -9 29 -13 0
-34 -707 -172 -1070 -210 -102 -11 -248 -28 -325 -39 -77 -11 -201 -25 -275
-31 -74 -5 -151 -12 -170 -15 -22 -4 -42 -1 -54 8 -17 13 -18 15 -1 46 9 18
53 90 97 160 157 248 241 341 305 341 42 0 62 -20 130 -132 96 -156 181 -230
265 -230 137 1 227 107 414 489 83 170 131 256 146 265 14 8 76 15 163 19 77
3 144 6 148 7 5 1 17 -3 28 -8z m197 -17 c106 -7 119 -16 100 -75 -15 -50 -4
-83 32 -98 46 -19 99 -7 218 49 59 28 120 51 135 51 15 0 136 -27 270 -59 133
-33 259 -63 280 -66 53 -10 64 -33 71 -155 3 -58 10 -142 15 -187 21 -179 -23
-377 -104 -472 -25 -29 -45 -60 -45 -70 0 -28 -57 -106 -108 -148 -26 -21 -96
-82 -157 -137 -132 -118 -200 -168 -192 -140 3 11 13 47 21 80 24 92 85 265
174 489 101 257 125 344 126 460 1 104 -20 156 -76 197 -28 19 -45 23 -113 23
-71 0 -88 -4 -155 -36 -41 -20 -148 -90 -236 -156 -208 -155 -261 -177 -318
-132 -65 51 -84 139 -87 407 -2 141 0 175 12 183 8 5 21 6 29 3 8 -4 57 -9
108 -11z m-599 -7 c14 -16 7 -38 -29 -91 -15 -22 -62 -110 -105 -195 -95 -190
-146 -269 -223 -342 -134 -128 -215 -98 -383 139 -44 62 -90 120 -102 128 -69
48 -155 -13 -289 -205 -57 -82 -152 -243 -177 -303 -11 -25 -29 -50 -40 -56
-26 -15 -168 -18 -181 -5 -13 13 47 203 85 267 17 31 25 58 25 93 0 56 34 137
72 171 13 13 66 41 117 63 161 70 217 119 230 199 4 28 10 53 12 55 7 7 164
23 177 18 7 -2 34 -35 58 -73 54 -81 100 -124 171 -156 146 -67 298 4 309 144
l4 48 -13 -47 c-28 -98 -74 -133 -174 -131 -104 1 -201 60 -270 164 -14 22
-24 42 -21 44 5 6 82 15 303 39 132 14 165 10 165 -19 0 -8 5 -15 10 -15 6 0
10 9 10 19 0 29 15 34 125 47 55 6 105 12 111 13 6 0 17 -5 23 -13z m949 -32
c17 -3 32 -9 32 -14 0 -10 -141 -65 -192 -74 -49 -9 -70 11 -57 56 5 18 9 34
9 35 0 10 135 8 208 -3z m-1978 -84 c35 -35 5 -68 -142 -154 -86 -50 -158 -79
-158 -63 0 18 74 203 83 209 7 4 35 8 62 9 28 1 64 5 80 9 47 12 54 11 75 -10z
m-296 -18 c2 -4 -8 -27 -24 -51 -26 -39 -87 -184 -150 -358 l-23 -63 -94 -50
c-152 -79 -258 -156 -388 -281 -67 -64 -132 -120 -144 -124 -58 -18 -51 57 18
177 61 106 75 147 62 182 -19 50 -70 33 -178 -61 -99 -84 -273 -217 -310 -237
-36 -18 -83 -21 -83 -6 0 19 182 200 257 256 80 60 96 82 91 122 -5 42 -45 41
-126 -4 -79 -45 -515 -234 -522 -227 -11 11 75 72 194 138 223 124 230 128
240 158 15 42 -3 62 -50 60 -22 -1 -133 -24 -249 -52 -250 -60 -287 -66 -311
-53 -16 9 -13 12 21 27 253 107 818 256 1700 448 34 8 64 7 69 -1z m2648 -189
c64 -32 87 -119 64 -250 -19 -111 -48 -199 -146 -438 -96 -234 -145 -374 -160
-457 -13 -72 -20 -83 -69 -107 -80 -41 -77 -43 -85 64 -18 266 -103 430 -257
500 -153 68 -331 37 -651 -113 -171 -80 -249 -144 -284 -230 -9 -22 -10 -22
-84 27 -41 28 -97 70 -125 95 -40 36 -48 47 -38 57 7 7 82 47 165 90 84 42
194 97 243 123 73 38 116 52 230 76 140 29 172 39 530 163 105 36 215 73 245
81 72 20 122 52 118 74 -5 25 -52 27 -111 4 -68 -27 -239 -74 -244 -68 -3 3
12 14 34 24 21 11 99 66 173 121 238 177 348 217 452 164z m606 -367 c99 -114
98 -108 23 -146 -25 -12 -68 -37 -95 -55 -28 -18 -61 -36 -73 -40 -22 -6 -22
-6 -6 32 28 66 43 135 50 226 3 48 7 87 8 87 2 0 43 -47 93 -104z m302 -272
c80 -64 162 -125 182 -137 41 -24 46 -32 24 -40 -8 -3 -32 8 -53 25 -53 43
-148 86 -218 99 -38 7 -127 9 -243 6 -161 -4 -181 -3 -170 10 19 23 280 152
308 152 17 1 70 -35 170 -115z m-1645 -75 c190 -35 301 -180 325 -427 11 -117
4 -162 -30 -179 -48 -24 -215 -91 -240 -96 -34 -8 -62 10 -105 66 -72 94 -158
129 -395 158 -205 25 -287 48 -335 93 -19 18 -35 38 -35 45 0 20 70 89 134
131 130 84 395 191 521 209 85 12 95 12 160 0z m1584 -35 c88 -20 188 -69 204
-100 13 -25 9 -30 -153 -195 l-167 -169 -119 74 c-129 81 -276 194 -300 231
-13 20 -13 27 -1 57 31 71 83 107 174 118 89 11 281 3 362 -16z m456 -119
c105 -44 454 -167 590 -209 l80 -24 -145 -1 c-168 -2 -216 -16 -245 -72 -16
-30 -16 -33 2 -57 30 -40 84 -62 201 -84 154 -29 232 -53 279 -87 82 -59 120
-169 103 -292 -12 -85 -21 -92 -90 -74 -30 8 -131 31 -223 50 -307 65 -342 83
-372 191 -65 236 -194 497 -306 621 -38 41 -42 67 -16 85 12 7 13 7 142 -47z
m-96 -188 c114 -180 183 -311 215 -411 31 -95 34 -131 9 -121 -10 4 -57 22
-104 39 -47 18 -142 64 -210 103 -68 39 -170 96 -225 127 -109 61 -138 85
-129 107 7 19 294 292 314 300 9 3 21 4 28 2 6 -2 52 -68 102 -146z m700 -97
c56 -6 141 -22 189 -36 105 -30 352 -149 405 -196 l38 -33 -128 -145 c-153
-173 -231 -255 -238 -248 -3 3 2 49 11 103 20 118 11 193 -33 264 -53 85 -141
128 -323 157 -131 21 -175 33 -199 55 -37 35 -3 65 90 79 78 11 77 11 188 0z
m529 -35 c92 -14 188 -25 215 -25 26 0 47 -3 47 -6 0 -3 -21 -32 -47 -65 -55
-70 -82 -81 -124 -50 -73 54 -130 89 -219 135 -52 26 -82 45 -67 42 16 -4 103
-18 195 -31z m612 -45 c58 -6 177 -17 264 -25 246 -24 325 -49 190 -59 -286
-23 -334 -34 -387 -87 -35 -35 -39 -43 -34 -75 12 -72 53 -108 167 -145 72
-24 150 -65 150 -79 0 -6 -11 -10 -25 -10 -34 0 -270 53 -380 86 -135 40 -221
62 -310 79 -115 23 -111 19 -73 67 19 24 61 83 93 132 33 48 73 99 90 113 26
23 35 25 90 19 33 -3 107 -11 165 -16z m-4099 -25 c90 -19 169 -50 218 -85 74
-54 44 -66 -61 -26 -186 71 -230 87 -303 110 l-80 26 80 -6 c44 -3 109 -12
146 -19z m4433 -195 c38 -14 32 -26 -20 -40 -40 -11 -53 -11 -102 5 l-57 19
50 12 c64 15 97 17 129 4z m-8215 -846 c-5 -62 -5 -142 0 -180 10 -82 1 -111
-36 -121 -15 -4 -89 -8 -163 -8 -118 0 -139 3 -170 21 -19 11 -41 31 -48 45
-17 31 -8 130 16 178 14 31 26 39 77 54 33 10 121 42 195 71 74 30 136 53 137
52 1 0 -3 -51 -8 -112z m-514 -38 c20 -14 20 -20 15 -166 -4 -108 15 -161 71
-196 44 -27 48 -45 19 -74 -16 -16 -33 -20 -92 -20 -84 0 -147 -15 -155 -36
-11 -29 24 -48 103 -55 42 -4 81 -12 86 -17 18 -18 -22 -34 -99 -39 -92 -7
-113 -15 -113 -48 0 -34 27 -45 112 -45 41 0 79 -5 85 -11 7 -7 9 -41 6 -92
-6 -101 13 -227 67 -457 25 -106 39 -185 36 -203 -11 -56 -74 -117 -119 -117
-27 0 -136 81 -210 155 -107 106 -157 216 -191 417 -27 152 -29 279 -11 518 9
124 15 267 13 319 l-3 94 120 24 c66 14 143 33 170 43 64 22 68 23 90 6z
m3709 -1027 l208 -74 -32 -25 c-18 -14 -56 -44 -84 -67 -28 -24 -68 -55 -89
-70 -36 -25 -41 -26 -75 -13 -39 14 -302 137 -310 145 -6 6 32 63 88 133 33
42 47 53 64 49 11 -3 115 -38 230 -78z m-377 -235 c92 -57 173 -90 253 -103
34 -6 68 -15 76 -22 18 -15 19 -109 2 -131 -7 -8 -44 -32 -83 -53 -77 -43
-125 -85 -125 -110 0 -24 35 -14 143 41 84 42 130 54 141 35 3 -5 -16 -23 -44
-41 -99 -64 -141 -141 -79 -148 18 -2 49 13 101 47 88 59 115 63 167 22 49
-39 82 -54 179 -85 92 -29 157 -36 339 -39 67 -1 124 -5 128 -9 11 -11 -33
-74 -75 -108 -57 -45 -136 -78 -220 -91 -97 -15 -656 6 -739 27 -118 31 -214
111 -312 259 -25 39 -76 116 -113 171 -79 120 -78 123 11 201 33 28 84 81 113
117 30 36 56 66 58 66 3 0 38 -21 79 -46z"/>
<path d="M7292 5355 c-19 -42 -13 -115 9 -115 17 0 40 62 37 98 -4 45 -29 54
-46 17z"/>
<path d="M3733 6673 c-28 -11 -9 -30 65 -65 84 -41 102 -45 102 -25 0 52 -112
113 -167 90z"/>
<path d="M3379 6505 c-225 -37 -379 -100 -379 -156 0 -10 3 -19 8 -19 4 0 53
15 108 34 144 49 291 77 425 83 130 6 215 -5 332 -43 80 -27 104 -24 91 9 -7
20 -93 63 -165 83 -78 22 -314 27 -420 9z"/>
<path d="M1848 5425 c-2 -3 -83 -23 -179 -45 -96 -22 -202 -49 -236 -61 -59
-19 -93 -43 -80 -56 4 -3 78 13 164 35 87 23 194 49 238 57 90 19 178 53 169
66 -5 9 -67 13 -76 4z"/>
<path d="M1820 5296 c-340 -125 -513 -204 -586 -268 -29 -26 -45 -58 -29 -58
3 0 43 22 90 49 145 83 376 181 655 277 34 12 56 26 58 37 6 28 -31 21 -188
-37z"/>
<path d="M8347 4609 c-29 -65 -38 -67 -122 -24 -40 20 -78 34 -84 30 -29 -17
0 -53 82 -100 48 -27 48 -28 29 -49 -22 -24 -35 -56 -23 -56 4 0 23 11 42 25
67 49 69 49 181 26 114 -23 146 -25 168 -11 29 18 -12 37 -142 65 l-126 28 10
28 c5 15 8 38 5 51 -3 21 -5 20 -20 -13z"/>
<path d="M7275 2395 c-84 -35 -123 -77 -146 -161 -27 -99 -25 -137 10 -176 28
-31 33 -33 98 -33 154 1 280 109 290 250 10 124 -107 180 -252 120z m191 -69
c33 -22 40 -59 19 -112 -34 -90 -124 -148 -232 -148 -52 -1 -65 3 -87 23 -32
30 -32 52 -2 117 26 55 93 119 141 134 41 13 131 5 161 -14z"/>
<path d="M3314 1780 c-42 -81 -58 -86 -111 -40 -45 40 -60 38 -35 -4 l21 -35
-54 -11 c-61 -13 -73 -23 -54 -47 11 -12 28 -14 85 -11 l71 5 -15 -38 c-26
-68 6 -93 51 -39 14 16 27 35 30 42 3 8 27 -9 66 -47 56 -54 61 -57 61 -34 0
26 -18 57 -58 101 l-25 27 24 5 c13 2 62 12 109 21 91 18 130 36 130 60 0 19
-1 19 -137 -2 -62 -9 -115 -14 -119 -11 -3 3 2 20 10 37 20 39 21 91 2 91 -8
0 -31 -31 -52 -70z"/>
</g>
</svg>
